<svg xmlns="http://www.w3.org/2000/svg" height="800" width="1200" viewBox="-32.89935 -25.5985 285.1277 153.591"><defs><linearGradient gradientTransform="matrix(-17.389 -18.196 -18.196 17.389 261.64 483.08)" gradientUnits="userSpaceOnUse" id="a"><stop offset="0" stop-color="#e4e86f"/><stop offset="1" stop-color="#4c7235"/></linearGradient></defs><path fill="#d3d3d3" d="M61.275 13.53s-.137-2.761 1.546-5.854c1.682-3.092 5.419-5.138 7.872-5.568 2.454-.43 3.965-.688 4.783-1.66.647-.77 1.179-.47 1.16.302-.013.535-.208 1.919-.408 3.224-.202 1.306-.828 4.455-2.21 6.597-2.072 3.218-4.842 3.98-7.24 4.215-2.348.232-4.36-.638-5.503-1.256"/><path fill="url(#a)" d="M286 459.64c-.289-1.229-1.384-3.911-5.02-6.898-4.02-3.303-6.936-3.885-6.936-3.885.916-.493 2.524-1.189 4.403-1.005 1.918.189 4.134.799 5.791 3.372 1.106 1.715 1.607 4.234 1.769 5.279.159 1.044.316 2.151.326 2.579.008.309-.123.509-.316.56z" transform="matrix(1.25 0 0 -1.25 -281.288 574.605)"/><path fill="#d3d3d3" d="M78.937 24.83c-1.134-2.435-3.179-4.529-6.242-5.076-1.843-.328-3.128-.198-6.39.594-2.332.565-4.298.485-6.682-.117-5.43-1.368-7.47-4.37-13.495-3.24-3.705.695-6.342 3.55-8.087 8.178-1.491 3.959-2.056 12.097 2.674 20.896 2.25 4.184 5.997 6.303 10.967 6.341 4.73-.136 5.879-1.027 8.624-1.202 2.475-.159 4.541 1.364 8.09.9 2.859-.284 6.315-3.07 8.304-5.948 5.21-7.542 4.847-15.715 2.237-21.326"/><path fill="#d3d3d3" d="M70.8 59.155c-3.59.98-5.962-.167-8.528.014-2.849.204-3.906 1.286-8.815 1.442-5.154-.043-9.044-3.076-11.377-7.9-4.91-10.145-3.82-18.922-2.714-23.605 1.62-6.87 5.172-10.346 11.585-9.197 3.732.67 6.891 3.059 11.222 3.601 2.145.268 4.464-.214 7.174-.872 2.091-.508 3.973-.572 5.834-.134 2.962.696 4.93 1.927 6.455 5.209 2.947 6.342 2.854 14.833-2.924 24.233-2.047 3.33-4.889 6.384-7.912 7.21"/><path fill="#d3d3d3" d="M81.7 24.393c-1.872-4.453-4.89-7.087-8.863-7.69-2.62-.395-4.149.576-6.759.907-1.745.221-3.336.2-4.96-.375-4.135-1.464-7.337-4.377-11.627-4.967-5.413-.744-9.936 3.55-11.769 6.336-4.324 6.574-4.272 19.252.486 29.402 0 0 1.07 2.047 1.682 3.03 1.885 3.034 5.132 6.484 11.616 6.8 4.732-.137 7.254-1.57 9.141-1.77 1.825-.196 4.264 1.13 8.131.513 4.845-.774 10.4-8.941 10.4-8.941 4.078-6.17 6.028-14.9 2.522-23.245M68.662 52.595c-3.55.464-5.616-1.057-8.09-.899-2.745.175-3.895 1.065-8.625 1.202-4.969-.038-8.717-2.157-10.967-6.34-4.73-8.8-4.164-16.937-2.673-20.897 1.744-4.626 4.381-7.482 8.086-8.178 6.027-1.13 8.067 1.872 13.497 3.24 2.383.6 4.35.683 6.68.117 3.263-.791 4.548-.922 6.39-.594 3.063.548 5.108 2.642 6.242 5.077 2.611 5.612 2.974 13.782-2.237 21.325-1.988 2.877-5.445 5.663-8.303 5.947"/><path fill="#d3d3d3" d="M51.5 24.405s-5 1.828-6.728 7.783c-1.786 6.16-4.046-6.315 6.728-7.783"/><path fill="#d3d3d3" d="M19.955 46.643c-.27-.022-.515.023-2.055 1.12l-.281.2c0-.003-.28.185-.28.185-1.14.744-2.254 1.556-2.254 2.54 0 .563.282 1.342.47 1.857l.07.2L4.818 83.33c-1.436 4.03-2.663 4.458-3.478 4.736-.596.21-1.34.464-1.34 2.048v1.81h10.807v-1.81c0-1.68-.775-2.036-1.568-2.261-.72-.2-1.047-.294-1.047-1.262 0-.874.57-2.51.875-3.385l.029-.09.93-2.783.322-.972h14.619l1.025 2.789c3.533 8.022 9.823 9.9 13.617 10.266v5.228c0 .189-.008.356-.021.502-.027.293-.079.505-.154.662a.73.73 0 01-.483.408 2.872 2.872 0 01-.455.084c-.221.03-.498.066-.758.178a1.393 1.393 0 00-.252.14c-.24.17-.439.438-.523.872a2.586 2.586 0 00-.043.492v1.412h11.439v-1.412a2.57 2.57 0 00-.047-.512c-.213-1.05-1.102-1.12-1.66-1.162-.371-.03-.68-.053-.895-.265-.161-.16-.27-.426-.314-.88a5.33 5.33 0 01-.024-.519v-6.691l.008-3.182-.008-16.363c.963-.804 2.228-1.38 3.5-1.617.425-.08.85-.121 1.266-.121.398 0 .774.026 1.129.076s.69.122 1.004.217c.314.094.609.211.885.346a5.617 5.617 0 011.443 1.005c.207.198.396.41.572.631.703.888 1.168 1.95 1.473 3.018a14.434 14.434 0 01.348 1.586c.082.517.132 1.017.164 1.476a20.453 20.453 0 01-.197 4.441c-.046.284-.099.57-.16.854a11.277 11.277 0 01-.827 2.473c-.623 1.296-1.548 2.407-2.902 3.057-.271.13-.559.24-.866.332a7.223 7.223 0 01-2.066.28 7.25 7.25 0 01-2.35-.407 1.806 1.806 0 00-.31-.055 1.165 1.165 0 00-.272.008.77.77 0 00-.584.402 1.25 1.25 0 00-.109.25c-.114.363-.113.83-.064 1.29.024.23.06.457.101.67l.01.04.041.018c.735.308 1.49.545 2.299.718.404.087.82.16 1.254.215.433.056.882.095 1.351.121 1.259 0 2.458-.163 3.582-.484a11.7 11.7 0 001.1-.373 11.188 11.188 0 003.816-2.512c1.21-1.21 2.148-2.697 2.783-4.383.16-.42.298-.854.418-1.298.241-.89.406-1.824.489-2.791a17.447 17.447 0 00.004-2.885 15.553 15.553 0 00-.44-2.639c-.434-1.676-1.139-3.168-2.074-4.433a11.428 11.428 0 00-.745-.904 10.95 10.95 0 00-3.752-2.68c-.72-.31-1.484-.549-2.287-.71-.401-.081-.813-.14-1.232-.182-.42-.041-.848-.062-1.285-.062-.399 0-.778.018-1.143.054a10.36 10.36 0 00-4.383 1.453c-.454.272-.862.557-1.232.834v-1.81l-8.002.228v1.5c0 .157.013.297.039.422.051.251.15.442.273.59.187.222.433.347.672.426.16.053.315.085.45.113l.21.043c.177.045.375.095.53.315a.986.986 0 01.107.197c.032.078.06.17.084.277.047.214.074.492.074.852v15.674c-4.956-1.348-6.528-6.426-10.034-16.024l-3.369-9.293-5.084-14.182c-.084-.233-.53-1.375-1.168-1.424zm79.117 9.033l-8.965.242v1.836c0 2.709 3.187-.24 3.187 4.03v25.175c0 4.269-3.187 1.323-3.187 4.031v1.836h12.033V90.99c0-2.648-3.069.18-3.069-4.03V55.675zm32.324.117l-8.452.227v1.398c0 1.44.961 1.575 1.537 1.656.662.095 1.104.159 1.104 1.68v31.979h1.7s2.713-2.347 2.802-2.422c2.199 1.494 5.054 2.422 7.47 2.422 7.196 0 12.22-5.478 12.22-13.32 0-7.665-4.882-13.016-11.871-13.016a13.58 13.58 0 00-6.51 1.652V55.793zm-113.71 2.784l.054.152a1094.92 1094.92 0 005.639 16.244H11.91l5.775-16.396zm180.39 1.615c-1.224 0-2.18.934-2.18 2.12 0 1.133.955 2.085 2.092 2.085l.441-.045c-.002 1.066-.376 2.36-1.336 3.48l-.156.188.773.776.188-.19c1.746-1.745 2.629-3.526 2.629-5.29 0-1.506-.769-3.124-2.451-3.124zm-119.37 6.205c-1.594 0-2.913.307-4.02.754a11.275 11.275 0 00-1.508.754c-.454.272-.862.556-1.232.834v-1.81l-8.002.228v1.5c0 .314.056.56.148.756a1.186 1.186 0 00.367.447c.292.217.65.292.918.348l.211.043c.089.022.183.046.274.092.182.09.353.268.447.697.047.214.074.491.074.851v25.752c0 1.133-.248 1.449-.656 1.573-.136.04-.29.062-.457.084-.37.05-.894.118-1.234.523a1.433 1.433 0 00-.3.666 2.589 2.589 0 00-.042.492v1.412h11.439v-1.412c0-.192-.017-.362-.047-.511a1.411 1.411 0 00-.324-.684 1.275 1.275 0 00-.516-.334c-.281-.103-.58-.127-.82-.145a3.305 3.305 0 01-.506-.064c-.3-.073-.522-.236-.637-.686a2.64 2.64 0 01-.066-.394 5.382 5.382 0 01-.022-.52v-6.691l.006-3.182-.006-16.363a7.314 7.314 0 011.633-1.021 8.076 8.076 0 011.233-.45 7.532 7.532 0 011.271-.236c.211-.02.421-.03.629-.03.398 0 .774.025 1.129.075.355.05.69.122 1.004.217a5.685 5.685 0 012.326 1.352c.207.198.397.409.572.63.176.223.337.455.485.696.147.24.28.491.402.746.968 2.038 1.139 4.436 1.139 5.879 0 .476-.014.994-.051 1.533-.037.54-.097 1.1-.188 1.668a13.275 13.275 0 01-.375 1.7 10.43 10.43 0 01-.611 1.626c-.125.26-.262.512-.412.754-.15.242-.312.475-.488.695a6.17 6.17 0 01-.575.624 5.666 5.666 0 01-.664.54c-.712.494-1.569.842-2.601.985a7.95 7.95 0 01-1.092.072c-.33 0-.67-.025-1.012-.078a7.894 7.894 0 01-1.04-.234l-.055-.018a19.366 19.366 0 01-.247-.078 1.783 1.783 0 00-.308-.055c-.29-.023-.524.047-.7.21-.122.114-.208.27-.265.45a2.33 2.33 0 00-.094.608c-.016.439.048.928.131 1.351l.008.041.041.018c1.103.462 2.258.767 3.557.934.433.055.88.095 1.35.12.419 0 .832-.018 1.237-.054 2.84-.253 5.333-1.385 7.262-3.314a11.965 11.965 0 002.25-3.157c.196-.395.373-.805.531-1.226.636-1.685.97-3.568.97-5.567 0-1.437-.172-2.792-.497-4.047a14.034 14.034 0 00-.847-2.37c-.868-1.851-2.13-3.383-3.699-4.504a10.899 10.899 0 00-2.023-1.143 11.591 11.591 0 00-2.287-.711 12.795 12.795 0 00-2.518-.244zm131.59.367c-4.334 0-10.438 2.398-10.438 7.73 0 4.82 4.236 6.214 7.976 7.446 3.204 1.055 6.23 2.052 6.23 4.992 0 2.994-3.437 4.078-5.745 4.078-2.36 0-3.508-.566-3.508-1.736 0-.187.061-.418.125-.64.066-.238.137-.487.136-.713 0-1.618-1.865-2.477-3.209-2.477-1.573 0-3.203 1.081-3.203 2.893 0 3.878 6.615 5.132 9.815 5.132 5.261 0 10.854-2.93 10.854-8.357 0-4.995-4.433-6.438-8.344-7.709-3.284-1.072-6.125-1.993-6.125-4.678 0-2.287 2.675-3.506 4.602-3.506.773 0 2.572.12 2.572 1.22l-.108 1.093c0 1.574 1.574 2.424 3.053 2.424 1.539 0 3.1-.923 3.1-2.686 0-3.565-5.09-4.506-7.783-4.506zm-96.365.145c-.396 0-.79.019-1.182.058a12.1 12.1 0 00-4.486 1.374 11.933 11.933 0 00-2.848 2.107 12.513 12.513 0 00-2.344 3.256c-.202.404-.385.822-.549 1.252-.326.86-.574 1.772-.74 2.726-.083.478-.144.966-.185 1.465a18.295 18.295 0 00-.063 1.526c0 .89.079 1.747.23 2.564.152.818.376 1.596.669 2.33.146.367.309.723.488 1.067a10.942 10.942 0 003.814 4.186c.324.207.66.4 1.008.577 1.74.885 3.782 1.371 6.035 1.371a16.27 16.27 0 006.56-1.382c.788-.35 1.408-.702 1.84-.975a8.51 8.51 0 00.715-.494l.065-.049-.031-.076c-.106-.265-.566-1.313-1.324-1.65a1.167 1.167 0 00-.856-.046c-.358.173-.719.325-1.08.454a9.908 9.908 0 01-3.354.572 9.797 9.797 0 01-2.11-.22 8.424 8.424 0 01-1.778-.606 7.786 7.786 0 01-1.465-.912 8.256 8.256 0 01-1.176-1.135 9.762 9.762 0 01-1.576-2.613 10.446 10.446 0 01-.691-2.528 92.506 92.506 0 007.117-1.955 69.211 69.211 0 004.17-1.484 60.62 60.62 0 002.156-.897 55.196 55.196 0 002.172-1.01c0 .004.125-.058.125-.058l.33-.162-.117-.492a22.84 22.84 0 00-.338-1.266c-.261-.863-.604-1.754-1.096-2.606a8.631 8.631 0 00-1.518-1.947 7.742 7.742 0 00-.73-.613 8.25 8.25 0 00-2.62-1.281c-.65-.19-1.348-.318-2.09-.381a13.422 13.422 0 00-1.147-.047zm50.238 0a11.727 11.727 0 00-2.348.236 12.203 12.203 0 00-6.166 3.303h-.002a12.687 12.687 0 00-2.89 4.508 15.364 15.364 0 00-.926 4.19 18.34 18.34 0 00-.063 1.527c0 .445.02.882.059 1.31.077.855.23 1.674.453 2.451.223.777.516 1.512.875 2.2a10.953 10.953 0 002.883 3.516c.594.475 1.243.893 1.939 1.247a12.428 12.428 0 002.227.865c.786.221 1.614.373 2.48.45.433.038.876.056 1.326.056a16.434 16.434 0 003.719-.43 16.199 16.199 0 002.844-.953c.394-.174.745-.35 1.053-.515.923-.498 1.447-.91 1.502-.953l.062-.05-.03-.075a4.772 4.772 0 00-.222-.471c-.224-.414-.596-.955-1.102-1.18a1.19 1.19 0 00-.855-.045c-.358.173-.719.325-1.08.453a9.916 9.916 0 01-3.354.573 9.797 9.797 0 01-2.11-.221 7.912 7.912 0 01-3.866-2.063 8.957 8.957 0 01-1.463-1.865 10.59 10.59 0 01-1.111-2.652 9.818 9.818 0 01-.244-1.211 91.983 91.983 0 007.115-1.955 72.614 72.614 0 004.172-1.486 57.97 57.97 0 004.45-1.965l.33-.162-.116-.493c-.248-1.021-.566-2.14-1.092-3.224a9.694 9.694 0 00-.738-1.276 8.674 8.674 0 00-.461-.609c-1.039-1.257-2.38-2.128-4.01-2.603a10.009 10.009 0 00-1.012-.239 11.73 11.73 0 00-1.08-.142 13.468 13.468 0 00-1.148-.047zm23.074 0a11.726 11.726 0 00-3.493.527 12.222 12.222 0 00-3.189 1.51c-.657.437-1.272.94-1.834 1.502a12.435 12.435 0 00-2.344 3.256 13.83 13.83 0 00-.978 2.58 16.02 16.02 0 00-.498 2.863 18.294 18.294 0 00-.063 1.526c0 1.335.179 2.596.514 3.761.112.389.24.766.387 1.133a11.58 11.58 0 001.074 2.063 10.953 10.953 0 003.228 3.189c.324.208.66.401 1.008.578 1.045.531 2.196.918 3.438 1.143a14.071 14.071 0 002.595.228 16.292 16.292 0 005.26-.87c.95-.325 1.742-.696 2.357-1.028.923-.498 1.446-.91 1.5-.953l.063-.05-.027-.075c-.125-.309-.728-1.684-1.729-1.752a1.212 1.212 0 00-.453.056c-.359.173-.719.325-1.08.454a9.924 9.924 0 01-3.354.572c-1.524 0-2.81-.311-3.888-.826a7.795 7.795 0 01-1.465-.912c-1.098-.864-1.893-1.962-2.447-3.079a10.513 10.513 0 01-.994-3.197c.987-.232 2.094-.504 3.29-.826a79.136 79.136 0 003.824-1.127 66.23 66.23 0 006.329-2.383 55.4 55.4 0 002.297-1.068l.328-.162-.117-.492c-.296-1.227-.695-2.594-1.432-3.872a9.27 9.27 0 00-.86-1.238 8.04 8.04 0 00-.658-.709c-1.159-1.102-2.62-1.815-4.363-2.133a12.42 12.42 0 00-2.226-.19zm-74.785 2.693c.226 0 .444.01.652.032a5.16 5.16 0 011.143.24 4.191 4.191 0 011.354.75c.257.212.487.451.694.715.832 1.054 1.297 2.482 1.647 3.97a85.707 85.707 0 01-5.328 1.522c-.928.234-1.862.456-2.785.66a81.93 81.93 0 01-2.713.553c.004-.162.013-.416.037-.735s.063-.703.123-1.129c.09-.639.23-1.37.445-2.107.072-.245.152-.49.242-.734s.19-.486.3-.721c.109-.235.229-.465.36-.686.132-.22.274-.433.43-.632.156-.2.324-.388.506-.561a4.29 4.29 0 01.588-.469c.21-.139.434-.26.674-.36a4.225 4.225 0 011.63-.308zm50.24 0c.226 0 .444.01.652.032.832.082 1.517.327 2.088.693 1.569 1.006 2.268 2.936 2.748 4.982a85.262 85.262 0 01-5.328 1.522 98.2 98.2 0 01-2.785.66c-.923.204-1.833.39-2.711.553a16.902 16.902 0 01.414-3.239 11.297 11.297 0 01.432-1.467c.09-.243.188-.485.298-.72.22-.47.482-.919.793-1.319.312-.4.672-.75 1.092-1.029.42-.278.898-.482 1.441-.588a4.6 4.6 0 01.866-.08zm23.074 0a6.217 6.217 0 011.248.123c.57.121 1.062.327 1.49.602.285.183.542.395.773.635.348.358.64.774.889 1.232.498.916.826 2 1.088 3.115a85.579 85.579 0 01-5.326 1.522c-.928.234-1.865.456-2.787.66a81.93 81.93 0 01-2.713.553 16.908 16.908 0 01.414-3.238 11.875 11.875 0 01.433-1.467c.09-.244.19-.486.3-.721.219-.47.48-.919.792-1.319.156-.2.324-.387.506-.56.182-.173.376-.33.586-.469.63-.417 1.39-.668 2.307-.668zm-49.615.067c6.37 0 7.06 6.71 7.06 9.595 0 3.81-.918 10.197-7.06 10.197-1.662 0-3.482-.666-4.766-1.74V71.407c1.281-1.072 3.104-1.738 4.766-1.738z"/></svg>
