<svg xmlns="http://www.w3.org/2000/svg" xmlns:xlink="http://www.w3.org/1999/xlink" height="800" width="1200" version="1.0" viewBox="-57.89925 -25.38425 501.7935 152.3055"><g transform="translate(-6.497 -6.421)"><defs><path id="a" d="M6.497 6.421h385.995v101.536H6.497z"/></defs><clipPath id="b"><use height="100%" width="100%" overflow="visible" xlink:href="#a"/></clipPath><path d="M307.692 6.827s-9.77-1.939-18.184 2.64c-8.414 4.568-8.185 6.467-7.372 6.742.847.275 5.174 3.018 7.873 2.478a21.467 21.467 0 0010.461-5.38c3.67-3.445 6.446-4.653 7.222-6.48" fill="#d3d3d3" clip-path="url(#b)"/></g><path d="M315.279 2.914c.463-.529-3.782-1.646-7.024-1.524-3.281.122-8.84 1.99-11.696 4.833-2.856 2.833-5.867 4.853-5.712 5.393.112.548 6.483 2.202 10.961.323 4.399-1.846 5.984-3.633 8.569-6.073 2.585-2.425 4.094-2.007 4.902-2.952m13.974 2.363s-6.793-2.606-11-1.413c-4.208 1.212-8.568 4.583-9.648 5.658-1.081 1.09-3.666 2.57-3.398 3.109.271.549 3.782 2.59 6.913 1.785 3.123-.792 6.521-2.536 8.413-4.435 1.928-1.889 4.092-2.822 5.71-3.221 1.621-.406 2.741-.536 3.01-1.483m12.736 1.677s-3.819-1.37-6.521-1.25c-2.706.132-8.415 1.462-10.308 2.946-1.889 1.483-7.063 4.435-7.217 4.984-.117.54 2.431 2.316 6.213 2.194 3.822-.125 6.796-1.87 8.993-3.351 2.164-1.485 4.903-3.778 6.254-4.314 1.352-.528 2.433-.387 2.586-1.209m14.361 2.783c.425-.854-4.745-1.513-8.26-1.532-3.553-.013-8.143 1.044-10.073 2.8-1.893 1.757-2.974 2.295-3.782 3.106-.813.813-2.202.947-2.202 1.485 0 .539 2.974 2.456 7.063 1.928 4.053-.526 6.909-1.188 9.382-2.944 2.431-1.746 3.664-3.37 5.016-3.91 1.351-.536 2.318.142 2.856-.933m-1.389 3.919c-1.389.303-7.718 2.954-7.446 4.448.229 1.493 6.175 6.123 8.219 6.132 2.046.01 6.523-2.538 8.567-2.942 2.009-.395 6.913.171 7.18-1.596.271-1.757-2.935-1.846-5.287-2.468-4.17-1.096-8.76-4.101-11.233-3.574m-74.305-.862c-1.618 0-6.521 1.605-6.096 3.095.387 1.494 1.463 4.205 7.025 6.541 5.517 2.327 12.658 4.499 16.516 4 2.009-.263.429-2.162-.268-2.17-.695 0-7.718-5.86-9.994-7.901-2.28-2.052-4.326-3.553-7.183-3.565m11.233 2.353c-.463.48 2.163 2.723 3.398 4.356 1.192 1.625 4.165 5.311 7.946 6.275 3.825.965 10.467 2.621 10.85 2.083.425-.545-1.351-1.372-3.243-3.411-1.889-2.041-5.672-7.21-9.995-8.723-4.323-1.512-8.376-1.117-8.956-.58m23.587 2.276c-1.818-1.411-4.712-2.059-6.487-1.929-1.776.134-3.24.396-2.974 1.067.271.69 2.819 3.005 3.516 4.092.654 1.086 3.744 4.485 7.408 5.999 3.67 1.505 10.692 2.886 10.967 2.216.308-.684-2.703-1.372-3.633-2.459-.963-1.086-5.946-6.802-8.797-8.986m7.873-.508c-2.277-.012-4.325.111-4.325.658 0 .54 2.819 3.261 3.36 4.359.539 1.083 4.207 4.486 7.293 5.581 3.131 1.108 8.53 1.536 9.498 1.129.964-.407-1.775-1.361-2.705-2.589-.926-1.219-5.787-7.21-8.219-8.032-2.431-.822-2.856-1.106-4.902-1.106m18.177 1.706s-8.409-.852-8.26-.303c.117.538 1.893 2.986 3.091 4.345 1.196 1.36 4.439 4.771 9.072 5.057 4.59.294 9.493.589 9.765-.093.268-.678-3.669-2.994-5.02-4.354-1.351-1.374-5.79-4.236-8.648-4.652M111.399 51.906c1.775-.144 19.84-10.571 34.042-15.863 15.286-5.694 43.27-16.447 73.222-19.93 31.502-3.666 48.288-2.568 50.452-2.824 2.201-.26 4.36.022 4.36-1.878-.037-2.628-11.887-2.427-20.068-2.264-15.327.316-42.967.346-90.055 14.157-19.455 5.684-58.71 24.398-57.512 26.166.848 1.207 3.821 2.578 5.559 2.436" fill="#d3d3d3"/><g transform="translate(-6.497 -6.421)"><defs><path id="c" d="M6.497 6.421h385.995v101.536H6.497z"/></defs><clipPath id="d"><use height="100%" width="100%" overflow="visible" xlink:href="#c"/></clipPath><path d="M56.87 87.763c-.58.355-9.032 5.016-17.333 10.426-9.34 6.093-14.511 7.313-13.007 8.662 1.082.954 6.602 2.185 13.164-2.03 7.062-4.538 8.337-5.027 22.887-12.995 0 0 4.75-2.307 4.906-3.393.113-1.088-1.777-2.171-4.632-2.03-2.859.129-4.211.262-5.985 1.36M35.407 38.394c-.809-.608-1.427-.406-3.05 1.016-1.658 1.422-6.716 4.681-13.237 18.104-1.813 0-3.358.811-2.856 2.028.349.848 1.428 1.435 1.428 1.435s-3.667 8.133-3.358 14.233c.309 6.104 2.742 14.24 17.794 13.833 15.055-.408 21.383-9.457 23.508-19.63 1.967-9.36-10.077-12.104-10.077-12.104s2.434-.505 4.904-1.725c3.358-1.693 10.96-7.218 10.96-16.277 0-4.377-1.504-6.407-2.236-7.423 0 0-3.436-4.376-19.918-4.984-16.483-.609-29.182 3.351-30.53 3.97-1.315.608-2.936 1.219-1.933 3.248 1.042 2.041 4.399 8.346 10.5 8.346 6.098 0 12.583-4.476 17.061-5.492 4.476-1.026 12.236-.61 15.863.914 3.668 1.524 4.713 2.538 3.668 7.321-1.002 4.784-3.166 6.203-5.097 8.042-1.928 1.818-4.554 2.437-4.745 2.945-.231.508-.118 1.115-.118 1.115s-6.911-.505-11.078-.201c-4.168.304-6.019 0-5.713 1.624.308 1.634 1.234 1.321 2.742 1.321 1.543 0 8.26-.203 12.003.406 3.784.619 8.336 2.345 7.447 6.822-.924 4.467-4.475 12.328-15.281 12.192-9.032-.101-10.038-6.599-10.038-7.927 0-1.319.271-10.264 3.747-18.511 3.474-8.235 6.291-10.683 7.1-12.104.85-1.42 1.351-1.928.54-2.537" fill="#d3d3d3" clip-path="url(#d)"/></g><path d="M65.311 52.616c-3.243 0-13.934 4.275-13.741 13.624.231 9.365 5.715 11.597 9.264 11.496 3.551-.104 6.718-1.524 10.267-5.9 2.123 3.77 4.169 6.511 7.644 6.306 3.438-.201 6.716-1.622 8.725-5.594 2.042-3.958 4.166-8.944 7.218-14.34 3.048-5.391 8.606-16.913 9.997-20.03 1.503-3.464 2.507-5.292.694-5.292-1.815 0-7.373 2.115-10.77 6.205-4.401 5.291-7.333 16.783-9.766 25.222-2.431 8.438-3.474 9.769-5.711 9.973-2.241.202-2.316-3.766-2.125-6.407.191-2.651 1.313-7.739 3.164-10.783 1.816-3.058.814-3.464-.809-3.261-1.661.203-2.973.822-5.019 2.039-2.007 1.222-2.508 1.222-2.935 3.859-.421 2.651-3.164 11.14-9.34 11.394-4.979.205-2.855-9.353.58-12.307 3.473-2.946 4.708-2.843 5.828-2.843 1.121 0 2.432 1.22 3.243.204.809-1.02-2.355-3.565-6.408-3.565m38.831 1.218c-2.511-.091-5.48 1.94-7.1 3.362-1.623 1.418-3.167 3.046-1.932 3.663 1.236.601 3.164-.415 4.168-.914 1.004-.517 2.548-.619 2.548.704 0 1.328-1.735 2.547-4.592 3.562-2.858 1.015-4.671 1.217-4.98 2.028-.307.826.309 3.667 1.929 6.308 1.621 2.651 3.979 5.797 6.333 5.491 0 0 3.549.103 6.291-3.044 2.741-3.159 4.477-5.494 3.05-6.204-1.428-.722-5.096 3.959-6.911 3.552-1.853-.407-3.856-4.366-3.782-5.088.115-.7 1.352-.8 3.474-1.724 2.123-.912 6.098-2.739 6.098-7.118-.002-3.451-3.358-4.525-4.594-4.578m22.272-.406c-4.363.274-14.051 3.645-14.823 13.931-.616 8.042 7.218 10.274 11.466 10.274 0 0 8.758.611 15.593-7.222 6.793-7.826 8.84-15.755 9.032-20.233.194-4.478-3.976-4.986-5.364-4.986-1.431 0-6.215 2.023-6.524 5.19-.192 2.131 3.743 4.779 5.597 4.669 1.813-.09 1.737-1.524 1.196-2.334-.5-.813-1.701-1.319-1.506-2.539.192-1.22.692-1.929 2.046-1.929 1.697 0 2.238 2.437.27 6.712-1.929 4.264-2.817 6.103-6.599 10.671-3.746 4.581-8.532 7.016-12.083 7.016-3.55 0-5.907-2.236-5.907-6.194 0-3.968 2.935-9.969 7.104-9.969.926 0 1.62 1.318 1.62 2.641 0 1.319-.308 3.767-5.058 4.273-1.929.205-2.546 1.116-2.546 1.928 0 .814 1.932 1.626 5.366 1.127 3.474-.516 8.261-1.938 8.375-7.328.079-5.383-5.597-5.798-7.255-5.698m25.245 1.129c2.546-1.027 6.599-2.751 7.099-1.534.505 1.229.233 3.462-1.31 6.001-1.506 2.549-6.6 7.531-7.024 8.755-.386 1.217-.694 3.044 1.737 3.247 2.431.205 4.788-.611 7.837-4.365 3.048-3.769 4.977-5.494 5.285-7.027.311-1.523-.113-3.249.426-4.062.501-.812 2.199-2.336 4.863-3.054 2.628-.711 5.174-1.829 5.096-.512-.116 1.323-1.737 3.046-1.353 4.986.426 1.931 4.094 8.438 3.475 12.309-.617 3.867-2.239 8.641-8.028 8.641-5.79 0-8.145-3.557-8.223-4.671-.113-1.128 1.006-1.532 1.814-1.434.811.1 2.856 1.737 4.67 1.638 1.853-.113 1.738-.619 1.738-1.131 0-.507-.811-2.13-1.738-3.753-.927-1.637-1.735-3.87-2.046-3.87-.269 0-4.861 5.595-6.406 7.216 0 0-4.98 6.411-10.152 6.005-5.172-.406-6.601-3.139-6.601-4.671 0-3.668 2.124-4.887 3.938-7.943 1.852-3.042 2.509-4.466 2.548-5.381.115-1.836-1.621-1.43-1.814-2.749-.193-1.323 1.118-1.828 3.86-2.64m70.057-16.482c-.426-1.017-2.627-.509-4.362 1.118-1.738 1.623-18.295 20.337-18.295 36.613 0 5.697 2.855 7.222 15.86 7.222 5.1 0 37.056 2.861 38.526-39.257.729-20.438-13.626-19.942-28.14-21.771-3.86-.476-16.406 1.333-19.956 2.243-3.553.916-4.557 1.829-3.243 4.378 1.309 2.539 3.744 8.996 10.461 8.744 10.69-.406 21.265-3.869 26.131-3.869 4.902 0 10.077.914 9.572 9.868-.5 8.945-4.168 16.479-5.907 18.714-1.73 2.233-6.909 11.189-24.509 11.189-8.222 0-8.955-1.333-8.955-6.521 0 0 .424-7.261 5.02-16.164 5.479-10.682 8.606-10.578 7.797-12.507" fill="#d3d3d3"/><path d="M259.541 65.837c0 1.116 1.355 1.024 2.474 1.024 1.12 0 11.774 0 11.774-8.141 0-3.67-4.249-5.191-7.723-5.191-5.403 0-15.052 6.002-15.052 14.45 0 8.437 7.64 10.469 10.882 10.469 3.244 0 10.271-.914 15.249-6.206.926 3.666 1.426 6.306 5.208 6.306 3.748 0 7.722-3.146 8.65-3.754 1.31 1.929 2.006 3.654 5.284 3.654 3.244 0 7.221-2.744 7.221-5.179 0-2.447-.617-1.332-1.042-1.332-.389 0-1.622 1.423-2.819 1.332-1.233-.103-1.926-.52-1.926-1.737s.809-4.466 2.623-7.522c1.813-3.047 4.361-6.712 4.361-7.829 0-1.13-.696-1.93-2.006-1.729-1.355.204-4.79 1.118-5.716 2.339-.926 1.218-3.666 6.202-4.782 9.146-1.122 2.952-1.006 4.377-1.432 4.885-.387.509-1.12 2.231-4.477 2.231-3.361 0-3.862-1.005-3.862-2.336 0-1.316.81-2.84 2.24-5.491 1.43-2.64 5.599-10.065 8.567-15.756 2.936-5.697 5.482-10.581 5.983-13.427.504-2.852 0-2.547-.616-2.547-.618 0-5.175.723-9.648 6.205-4.479 5.493-6.834 14.044-8.145 18.408-1.312 4.376-2.938 11.292-10.581 13.828-7.64 2.55-9.453.51-10.148-.405-.733-.913-1.659-2.643-1.659-5.288 0-2.641 2.585-9.161 6.945-8.847 1.389.104 1.972 1.13 2.01 2.651.113 3.047-3.782 3.484-6.1 4.163-1.737.509-1.737 1.626-1.737 1.626" fill="#d3d3d3"/><path d="M305.206 45.499c-2.239 0-4.244 1.737-4.244 4.171 0 2.438 1.93 3.564 3.856 3.564 1.931 0 3.86-.618 3.86-4.071.001-3.46-3.047-3.664-3.472-3.664m14.051 8.64c-6.796 0-14.318 10.479-14.318 16.479 0 5.898 4.166 8.041 6.292 8.041 4.862 0 7.409-2.143 7.948-1.734.504.406-1.464 5.492-3.086 9.667-1.622 4.161-4.478 11.391-8.919 11.391-3.277 0-3.586-2.041-3.586-3.562 0-3.667 3.161-9.262 6.097-9.262 1.659 0 1.042 1.838 2.856 1.838 1.852 0 3.242-2.134 3.242-3.258 0-1.116-.19-2.133-2.817-2.133-6.329 0-15.364 6.608-15.364 12.408 0 0 .194 7.523 10.073 7.523 9.998 0 14.942-12.864 19.112-24.919 3.16-9.138 6.83-17.86 6.83-19.827 0-1.629-.621-1.524-1.659-1.524-1.931 0-7.063.82-10.963 16.469 0 0-2.742 1.625-4.48 1.625-1.735 0-4.054-.507-4.054-3.453 0-2.954 2.628-12.51 7.914-12.51 3.474 0 2.355 1.523 4.057 1.523 1.734 0 1.114-1.318 1.114-1.724 0-.407-1.811-3.058-6.289-3.058m36.514-20.543c-.696-.506-9.453 2.853-12.122 8.957-2.622 6.092-4.553 12.713-6.597 19.323-2.046 6.607-5.599 15.048-5.29 15.958.309.917 2.243 1.524 4.479.824 2.239-.721 2.973-6.517 5.482-11.403 1.813-3.461 6.329-13.512 8.956-19.006 2.661-5.491 5.208-11.595 5.403-13.321.192-1.739-.311-1.332-.311-1.332" fill="#d3d3d3"/><g transform="translate(-6.497 -6.421)"><defs><path id="e" d="M6.497 6.421h385.995v101.536H6.497z"/></defs><clipPath id="f"><use height="100%" width="100%" overflow="visible" xlink:href="#e"/></clipPath><path d="M360.649 60.671c-1.931 0-7.643 1.32-7.643 4.163 0 1.118 1.234 1.829 1.927 1.829.737 0 1.43-.611 2.55-.611 1.118 0 1.736 0 1.736 1.118 0 2.447-4.904 10.174-4.904 13.827 0 0-.384 4.082 5.521 4.082 5.904 0 8.454-2.753 9.535-2.753 1.118 0 1.426 2.947 4.478 2.947 3.049 0 5.212-3.046 5.212-4.164 0-1.117-.5-1.329-1.121-1.329-.617 0-1.427.722-2.239.722-.81 0-1.121-.204-1.121-.61 0-.417 2.126-4.683 4.36-9.26 2.244-4.58 5.1-9.555 5.1-9.555s2.856.395 3.86-.102c1.002-.518 2.236-1.838 2.236-3.97 0-1.217-1.622-1.016-2.736-1.116-1.122-.102-.93.1-.733-.824.229-.913 3.586-7.728 4.591-10.368 1.005-2.64 2.043-4.681.309-4.577-1.738.1-8.026 2.749-11.078 8.244-3.049 5.484-4.091 8.03-5.287 12.306-1.239 4.263-3.591 13.32-5.291 15.861-1.734 2.536-5.208 5.593-8.261 5.593-1 0-1.737-.102-1.618-.505.114-.406 3.975-7.223 4.862-9.365.926-2.132 1.734-2.638 1.734-6.813 0-4.159-3.744-4.77-5.979-4.77" fill="#d3d3d3" clip-path="url(#f)"/></g><path d="M366.657 49.163c-1.427.052-4.362.507-4.362 3.554 0 1.533 1.622 1.735 2.818 1.735 1.235 0 2.97.509 3.474-2.344.504-2.844.926-3.044-1.93-2.945" fill="#d3d3d3"/></svg>