<svg xmlns="http://www.w3.org/2000/svg" height="800" width="1200" overflow="visible" viewBox="-28.0629 -37.30975 243.2118 223.8585"><g clip-rule="evenodd" fill-rule="evenodd"><path fill="#d3d3d3" d="M0 45.245l187.086.13-.151-2.517-46.701-20.571L130.946 0H56.467l-9.179 22.352L.043 43.01z"/><path d="M70.591 99.426c-.009.211-.086.471-.023.609.011.041.028.096.045.15.314.314.599.657.852 1.027a7.186 7.186 0 011.136 2.727c.019.106.038.231.066.477.028.246.063.611.095.978v13.779l-.13.803a8.175 8.175 0 00-1.678-.865c-1.258-.487-2.749-.696-4.203-.589-.527.112-1.055.219-1.498.309-.443.09-.802.161-1.074.194a2.072 2.072 0 01-.64-.004l-.043-.173-.022-15.104a2.4 2.4 0 01.257-.749c.119-.229.315-.569.524-.9.281-.391.554-.786.745-1.076.191-.289.3-.471.375-.615.207-.418.244-.718.178-1.043a.931.931 0 00-.222-.452.872.872 0 00-.197-.161 3.684 3.684 0 00-.444-.232H48.304c-.197 0-.395.012-.541.028-.348.053-.537.111-.778.337a1.185 1.185 0 00-.297.953c.01.097.029.204.064.33.067.266.267.67.531 1.063.259.336.511.677.679.917.167.239.252.378.317.497.143.264.19.402.247.599.03.106.062.233.106.479.044.247.1.613.148.979-.013 5.898.004 11.786-.039 17.695-.026.104-.146.188-.23.218-.043.032-.321.065-.557.094-.12.016-.201.03-.281.049-.503.126-1.013.228-1.592.315-.579.087-1.228.161-2.044.202a39.29 39.29 0 01-2.699.027 32.97 32.97 0 01-2.392-.137 20.857 20.857 0 01-1.77-.244 17.576 17.576 0 01-3.894-1.173 20.792 20.792 0 01-2.62-1.349 25.205 25.205 0 01-2.716-1.918c-.317-.064-.619.025-.917.357a2.025 2.025 0 00-.195.262c-.069.108-.143.24-.218.412a4.358 4.358 0 00-.214.612c-.062.23-.108.482-.141.772-.032.29-.05.618-.023 1.074.049.908.294 2.346.769 3.613.236.634.525 1.221.846 1.753a9.2 9.2 0 001.065 1.444c.391.431.822.815 1.319 1.174.498.357 1.062.69 1.694.975.632.284 1.332.521 2.137.697.806.177 1.717.292 2.776.336 1.06.046 2.267.02 4.253-.383 1.986-.403 4.751-1.184 7.444-2.141l.195.911.043 11.522a3.71 3.71 0 01-.074.632c-.044.225-.107.471-.331.912a15.877 15.877 0 01-1.028 1.69c-.291.399-.564.813-.73 1.09a2.601 2.601 0 00-.263.536c-.149.446-.155.858.168 1.248.235.244.438.33.738.445 5.824-.003 11.649.011 17.474-.009.313-.018.67-.49.713-.82a1.507 1.507 0 00-.071-.803 1.811 1.811 0 00-.245-.483c-.159-.24-.428-.59-.638-.881-.21-.291-.359-.521-.501-.758a3.938 3.938 0 01-.244-.618 6.67 6.67 0 01-.239-1.103 18.383 18.383 0 01-.147-1.903l.022-15.472c.014-.335.016-.68.375-1.002.117-.095.313-.18.565-.288.164-.068.353-.14.655-.226.303-.086.719-.188 1.223-.281.505-.094 1.098-.18 1.593-.211a6.118 6.118 0 011.235.04c.346.047.643.116.911.202.268.087.505.19.693.289.358.191.581.376.858.689.13.153.26.332.39.555.131.223.263.488.393.858.13.371.258.846.354 1.326l-.065 13.889a7.086 7.086 0 01-.5 2.604c-.055.166-.131.324-.334.619-.203.294-.532.726-.765 1.048a6.882 6.882 0 00-.461.707c-.221.418-.271.688-.269 1.008-.006.329.142.628.412.771.14.093.417.185.701.253 5.667-.003 11.336.012 17.003-.01.273-.021.625-.377.736-.688.137-.32.133-.616.052-.897a1.923 1.923 0 00-.116-.295 2.94 2.94 0 00-.313-.501c-.183-.249-.476-.61-.663-.862-.324-.435-.354-.586-.469-.853a4.369 4.369 0 01-.16-.485 17.8 17.8 0 01-.229-.942l.022-38.475c0-.102.008-.202.024-.306.016-.104.04-.209.118-.402.079-.193.211-.474.357-.746.054-.159.131-.309.333-.583.202-.274.531-.674.764-.975a6.05 6.05 0 00.465-.67c.229-.413.303-.715.303-1.056-.027-.296-.039-.659-.445-.878a1.081 1.081 0 00-.181-.069 1.932 1.932 0 00-.374-.064c-.203-.02-.513-.038-.822-.045H71.676c-.271.01-.529.04-.825.323a1.094 1.094 0 00-.26.485zm-5.634-36.121c.246.335.484.676.643.916.302.459.352.587.446.832.042.115.081.245.122.393.094.331.189.823.265 1.331l.043 19.096c.002.664-.006 1.331-.049 1.774-.043.443-.105.664-.171.856a3.742 3.742 0 01-.214.516 1.806 1.806 0 01-.239.365 8.193 8.193 0 01-.506.557c-.223.229-.502.504-.672.694-.295.336-.312.456-.395.648-.117.383-.132.741.153 1.176.071.099.154.182.249.249a.848.848 0 01.153.142c.074.082.184.212.26.294.161.17.217.187.303.215l20.616-.108c.96-.005 1.919.116 2.975.345a17.94 17.94 0 013.535 1.163c1.324.587 2.818 1.412 4.232 2.355 1.747 1.38 3.559 2.686 4.802 3.491 1.244.806 1.92 1.111 2.518 1.343.597.23 1.114.386 1.731.498.617.113 1.333.184 2.085.175 1.816-.009 3.967-.543 5.86-1.634.381-.216.771-.46 1.181-.745.41-.285.837-.611 1.294-1 .458-.39.945-.842 1.276-1.185.628-.663.768-.961 1.003-1.388.105-.205.204-.426.261-.578.119-.344.099-.464.06-.671-.042-.259-.347-.535-.571-.618a1.857 1.857 0 00-.615-.13 1.996 1.996 0 00-.507.034 9.371 9.371 0 00-.88.236c-.387.117-.883.272-1.377.435a12.67 12.67 0 01-2.107.192 11.4 11.4 0 01-1.973-.16 10.271 10.271 0 01-1.779-.466c-.896-.351-1.776-.746-3.094-1.444-1.317-.697-3.074-1.698-4.273-2.31-1.2-.612-1.843-.834-2.507-.978l-5.165-.716 16.341-25.216c.436-.749.425-1.571-.099-2.484-.185-.241-.313-.3-.499-.391a1.988 1.988 0 00-.436-.133 11.999 11.999 0 00-.985-.16l-25.108-.022c-.371.005-.73.137-1.094.577-.387.485-.574 1.103-.643 1.657a5.81 5.81 0 00-.038.473c-.012.245-.022.614-.026.983a67.927 67.927 0 00-.088 2.78 54.716 54.716 0 00.132 4.429c.035.451.062.623.094.758.074.284.136.454.347.679.519.408 1.035.41 1.624.2a1.81 1.81 0 00.412-.234 1.67 1.67 0 00.322-.323c.346-.805.718-1.598 1.025-2.197a15.582 15.582 0 011.427-2.296c.266-.35.57-.672.914-.965a6.614 6.614 0 012.428-1.313 12.8 12.8 0 011.872-.374 22.15 22.15 0 011.384-.125c.416-.045.835-.068 1.113-.064.482.01.599.079.84.173l-.368.868c-5.104 7.748-10.18 15.482-15.311 23.243-.173.178-.393.114-.513-.07-.055-.07-.129-.282-.192-.495a4.372 4.372 0 01-.257-1.053c-.046-.343-.098-.86-.134-1.378V63.587a7.25 7.25 0 00-.053-.891 2.9 2.9 0 00-.121-.552c-.108-.312-.203-.527-.479-.795a1.281 1.281 0 00-.39-.251c-.169-.079-.447-.142-.736-.18l-10.308.043a8.775 8.775 0 00-.775-.003c-.396.028-.464.069-.68.192-.459.352-.521.807-.455 1.286zm-41.59-8.956c.051.312.079.544.252.81.077.121.192.269.355.472.162.203.372.46.586.714.077.128.146.262.219.418.073.156.148.338.246.706.098.368.218.922.316 1.48v36.457c0 .456-.021.913-.054 1.26a5.603 5.603 0 01-.128.79 4.516 4.516 0 01-.165.554c-.07.213-.167.414-.403.755-.236.341-.609.82-.844 1.16-.235.341-.333.542-.402.755a4.618 4.618 0 00-.184.61c-.062.345-.022.449.063.646.046.089.108.174.202.265.118.115.308.23.505.323l17.252.109c.333-.025.694-.014 1.093-.501.166-.261.197-.604.134-.895a1.742 1.742 0 00-.115-.362 5.204 5.204 0 00-.345-.632 29.29 29.29 0 00-.746-1.148 17.726 17.726 0 01-.709-1.418 4.65 4.65 0 01-.283-.827 7.653 7.653 0 01-.135-.684l.13-34.396c.002-.617.03-1.235.081-1.671.051-.436.12-.689.191-.904.071-.215.145-.389.224-.542.225-.444.586-.817.97-1.039.843-.477 1.729-.497 2.697-.229.761.231 1.409.608 2.053 1.307.435.455.891 1.205 1.207 1.902.162.353.283.67.405 1.037.123.366.247.783.376 1.349.128.566.261 1.281.368 2 .2 1.429.304 2.872.305 4.085a17.854 17.854 0 01-.25 3.074 15.008 15.008 0 01-.585 2.351 12.852 12.852 0 01-.828 1.913 9.718 9.718 0 01-.924 1.419 8.442 8.442 0 01-.984 1.056c-.354.319-.743.62-1.157.901a12.52 12.52 0 01-2.76 1.411c-.581.646-.313 1.386.285 2.127.149.18.325.361.545.55.221.188.486.383.845.588a10.678 10.678 0 003.782 1.239c1.819.248 3.884.062 5.912-.629a14.895 14.895 0 003.021-1.427 15.458 15.458 0 002.572-2.006 14.873 14.873 0 001.93-2.285c1.138-1.629 2.022-3.619 2.512-5.516.248-.945.402-1.848.499-2.828.098-.979.138-2.036.09-3.182a26.466 26.466 0 00-.383-3.493 19.363 19.363 0 00-.767-2.973 14.778 14.778 0 00-1.015-2.284 13.137 13.137 0 00-1.17-1.774 12.024 12.024 0 00-1.329-1.438 11.69 11.69 0 00-1.506-1.171 11.058 11.058 0 00-1.631-.883 11.496 11.496 0 00-1.015-.375 10.678 10.678 0 00-1.604-.381 43.898 43.898 0 00-3.131-.395c-8.671.009-17.341.006-26.013.029-.147.015-.328.187-.413.358-.178.344-.272.833-.245 1.308zm89.327 7.091a1.582 1.582 0 00-.478.452 2.239 2.239 0 00-.242.431 5.81 5.81 0 00-.263.762l-.044 8.702c-.001.247.02.495.047.687.028.192.066.327.106.44.096.257.193.448.437.656.464.348.957.341 1.529.095.272-.125.524-.35.83-.687.171-.19.354-.418.613-.946s.591-1.355.857-1.947c.267-.59.467-.944.721-1.297a6.54 6.54 0 01.921-1.03 6.562 6.562 0 011.219-.865c1.48-.822 3.193-.999 4.807-1.097.279-.036.559-.064.748-.078.297-.02.391-.014.546.021a.53.53 0 01.399.384l-15.929 24.304c-.341.64-.541 1.428.099 2.233.173.177.366.27.532.317.133.046.464.088.802.118.385.075.774.121 1.543.147.77.026 1.918.032 2.733.055.815.023 1.298.062 1.99.15s1.595.226 2.271.352a15.79 15.79 0 011.527.355c.399.112.746.226 1.089.351.948.305 1.852.732 3.404 1.789 1.552 1.057 3.755 2.743 5.313 3.807 1.56 1.063 2.475 1.505 3.435 1.826.705.266 1.44.448 2.225.55 1.881.254 4.061-.006 6.138-.877a15.053 15.053 0 001.968-.975c.749-.442 1.467-.94 1.992-1.368 1.019-.847 1.404-1.434 1.783-2.104a5.22 5.22 0 00.28-.588c.157-.42.193-.706.09-1.021-.09-.286-.445-.541-.667-.566a1.739 1.739 0 00-.549-.017c-.226-.003-.452.021-.88.129-.428.106-1.059.297-1.513.415a6.151 6.151 0 01-1.015.194 9.09 9.09 0 01-1.831-.019 11.033 11.033 0 01-2.363-.51 23.233 23.233 0 01-3.228-1.36 168.953 168.953 0 00-2.577-1.457 36.408 36.408 0 00-1.437-.763 12.729 12.729 0 00-.891-.405c-2.402-1.007-4.936-1.505-7.402-1.581-.112-.144-.059-.218-.02-.372l16.081-24.543c.348-.533.485-1.231.388-1.871-.065-.384-.174-.716-.429-1.042a1.606 1.606 0 00-.407-.334 2.075 2.075 0 00-.452-.202 9.972 9.972 0 00-.988-.263H114.75c-.354 0-.707.029-.984.074a2.942 2.942 0 00-1.072.389zM89.25 117.076c.005.266-.024.54.08.776.029.078.066.166.183.323.218.287.608.71.779 1.005a4.228 4.228 0 01.341.795c.078.24.178.589.267.94l-.043 20.398c0 .276.028.553.093.873.065.32.168.685.333 1.103.166.418.393.888.684 1.368.292.481.646.972 1.012 1.398a8.8 8.8 0 002.261 1.892c.376.22.744.396 1.281.58.536.184 1.241.376 2.043.513.801.137 1.699.218 2.767.195a22.52 22.52 0 003.351-.341 14.02 14.02 0 004.951-1.88 12.373 12.373 0 001.884-1.426c-.023.22-.029.441-.019.646.01.205.038.392.075.557.111.429.228.819.728 1.216.17.122.31.183.467.235.087.028.187.058.392.092.206.033.519.071.831.098h9.332c.228-.008.455-.056.72-.347.268-.32.284-.688.214-1.011a1.772 1.772 0 00-.104-.304 2.524 2.524 0 00-.307-.51c-.182-.251-.474-.612-.658-.864-.184-.252-.261-.395-.32-.545a7.233 7.233 0 01-.392-1.331 20.63 20.63 0 01-.215-1.36c-.006-8.173.019-16.345-.017-24.518-.048-.242-.146-.428-.35-.646-.198-.203-.427-.389-.613-.479a1.717 1.717 0 00-.479-.162 9.336 9.336 0 00-1.06-.149c-3.577-.034-7.151-.081-10.73-.103-.173.009-.352.244-.396.406-.104.316-.118.623-.093 1.041a7.474 7.474 0 011.09 1.683c.266.58.426 1.061.519 1.478.048.208.097.448.146.939.049.491.103 1.233.134 1.977l-.022 14.757c0 .41-.054.82-.146 1.188-.093.366-.227.69-.382.971-.154.28-.331.518-.55.74-.219.222-.48.432-.775.612-.843.514-1.873.776-2.884.619a3.242 3.242 0 01-.776-.224c-.48-.195-.958-.602-1.201-.993a3.566 3.566 0 01-.257-.474 3.784 3.784 0 01-.272-.839 16.564 16.564 0 01-.265-1.71l.021-19.856c-.027-.475-.088-1.156-.711-1.682a2.05 2.05 0 00-.683-.33 8.459 8.459 0 00-.906-.201l-10.876-.105c.082-.013.067.08.041.113 0 .016-.15.21-.272.37-.162.222-.226.35-.246.493zm79.219-48.348c0-.511-.074-1.021-.204-1.532a7.061 7.061 0 00-1.413-2.769 6.96 6.96 0 00-.959-.967 9.297 9.297 0 00-1.243-.874 10.598 10.598 0 00-1.768-.833 19.686 19.686 0 00-2.424-.699 21.585 21.585 0 00-2.539-.407 26.032 26.032 0 00-2.971-.137c-1.11.011-2.357.092-3.389.189a30.897 30.897 0 00-2.495.326 17.16 17.16 0 00-1.559.345c-.776.201-1.4.462-2.083.76a8.086 8.086 0 00-3.006 2.056 7.5 7.5 0 00-1.498 2.449 5.41 5.41 0 00-.253.928c-.124.71-.097 1.35.134 1.989.106.287.254.559.445.82.192.261.43.512.716.738a4.632 4.632 0 003.354.938c.323-.035.646-.097.934-.179.288-.081.543-.182.771-.293.437-.217.75-.44 1.07-.799.154-.171.32-.377.575-.856.256-.479.6-1.23.903-1.995.179-.354.386-.693.597-.979.944-1.246 1.841-1.597 2.799-1.742.302-.045.591-.059.857-.048.267.011.512.046.734.099.223.053.424.124.607.208.32.151.587.322.834.581.104.11.206.234.302.378.097.144.188.307.272.495.303.691.462 1.607.313 2.486a3.68 3.68 0 01-.285.924c-.202.43-.449.762-.811 1.086-.13.117-.285.24-.567.406-.283.165-.695.372-1.117.555L145.162 75c-.83.244-1.64.562-2.335.922a9.828 9.828 0 00-1.772 1.171c-.494.41-.9.831-1.253 1.293a9.114 9.114 0 00-1.503 2.882 10.404 10.404 0 00-.464 3.384 9.59 9.59 0 00.687 3.282c.255.621.585 1.212.993 1.77a8.98 8.98 0 001.44 1.548 9.505 9.505 0 001.813 1.204c.66.338 1.372.615 2.135.832a13.93 13.93 0 005.012.462 17.229 17.229 0 001.52-.194c1.38-.254 2.323-.579 3.423-1.17.806-.426 1.824-1.151 2.826-2.043.3.446.654.854 1.077 1.235.424.381.916.735 1.486 1.045.571.31 1.222.575 1.935.768 1.424.388 3.076.469 4.639.164a8.925 8.925 0 001.59-.509 6.333 6.333 0 001.199-.68 5.86 5.86 0 001.812-2.153c.087-.163.164-.332.212-.455.117-.321.118-.491.054-.711-.03-.13-.188-.314-.325-.385-.194-.103-.256-.108-.492-.157-.158-.029-.38-.063-.523-.092a.825.825 0 01-.271-.088 2.657 2.657 0 01-.428-.238 1.562 1.562 0 01-.484-.521 2.75 2.75 0 01-.19-.36 3.334 3.334 0 01-.224-.721 18.455 18.455 0 01-.258-1.609zm-18.232 17.225a2.882 2.882 0 01-.279-.458 3.468 3.468 0 01-.267-.729c-.186-.747-.35-1.876-.158-2.827a5.547 5.547 0 01.493-1.489c.441-.858 1.032-1.524 1.989-2.208.452-.322.987-.65 1.747-.986.768-.344 1.767-.673 2.778-.969.127-.062.239-.024.382.13v6.944a9.26 9.26 0 01-.324 1.404c-.244.699-.43.955-.798 1.346a4.217 4.217 0 01-.688.546c-.795.5-1.77.737-2.721.6a3.316 3.316 0 01-.774-.213c-.536-.219-.898-.54-1.38-1.091zm-26.843 32.018c-.091.438-.188.841.021 1.298.062.14.145.27.24.381.097.11.205.202.324.274.106.072.223.127.401.18.179.052.419.102.725.162.305.061.674.133 1.045.201l-.044 19.964a10.906 10.906 0 00.685 3.815c.211.557.458 1.056.726 1.496.268.44.556.822.855 1.153.299.331.611.61.931.851.32.239.647.439 1.008.613a7.27 7.27 0 001.184.444c.432.122.903.219 1.431.279.528.061 1.111.084 1.77.048.657-.036 1.39-.133 1.986-.256a7.868 7.868 0 003.762-1.907 7.586 7.586 0 001.853-2.631c.146-.322.271-.655.34-.892.12-.427.095-.593.072-.844-.042-.238-.153-.57-.471-.771-.225-.132-.413-.127-.617-.099a1.847 1.847 0 00-.345.095c-.167.061-.406.158-.569.216a1.24 1.24 0 01-.342.082c-.349.034-.73.007-1.079-.115a1.803 1.803 0 01-.7-.428 1.883 1.883 0 01-.397-.562 2.375 2.375 0 01-.191-.55 9.226 9.226 0 01-.171-1.059V121.18l.108-.868c1.615-.04 3.229-.065 4.847-.119.31-.018.684-.425.788-.728.206-.492.216-1.056.203-1.601a5.207 5.207 0 00-.154-1.047c-.085-.282-.13-.348-.301-.511-.128-.1-.15-.092-.316-.151-.037-.014-.057-.021-.075-.031a13.876 13.876 0 01-5.1-.174v-6.771c0-.167-.011-.334-.027-.456-.063-.324-.101-.481-.413-.727-.364-.252-.87-.223-1.234-.021a2.804 2.804 0 00-.349.231c-.166.123-.397.306-.624.494l-11.09 8.29c-.399.309-.57.627-.696.981zm23.34 25.387c-.3.097-.593.242-.856.431-.572.41-.935.965-1.106 1.493a2.786 2.786 0 00.002 1.741c.094.289.237.573.426.833.189.259.424.493.688.685.822.581 1.764.72 2.674.433.298-.097.59-.242.854-.433.574-.416.94-.979 1.113-1.518.25-.827.206-1.666-.419-2.559a3.1 3.1 0 00-.686-.676c-.825-.577-1.773-.716-2.69-.43zm1.682.461c.25.08.494.2.713.357.761.563 1.034 1.296 1.039 1.979a2.454 2.454 0 01-.468 1.44c-.348.48-.821.782-1.28.93a2.501 2.501 0 01-1.538 0 2.535 2.535 0 01-.713-.361c-.758-.567-1.027-1.301-1.035-2.009 0-.459.129-.948.467-1.416a2.571 2.571 0 011.284-.921 2.524 2.524 0 011.531.001zm.627 1.319c-.055-.187-.097-.353-.396-.573a.779.779 0 00-.425-.138h-1.845v3.299h.694v-1.323c.261.004.528-.016.782.014.18.015.521.352.498.615l.043.694h.651c-.073-.399.08-.782-.132-1.185-.081-.183-.317-.396-.476-.378.163-.049.31-.092.504-.379a.827.827 0 00.102-.646zm-1.168-.169c.159-.005.443.041.497.262.049.157.056.536-.306.648-.321.049-.663.016-.994.022v-.933h.803zM76.319 49.405c-.483-.274-1-.488-1.616-.66a10.614 10.614 0 00-2.081-.353 11.433 11.433 0 00-2.228.066 9.452 9.452 0 00-1.874.439 5.71 5.71 0 00-1.409.702 5.68 5.68 0 00-1.201 1.112 5.484 5.484 0 00-.999 4.875 5.39 5.39 0 00.688 1.523c.251.399.576.778 1.056 1.155.229.179.489.351.79.513a7.08 7.08 0 001.025.448 8.61 8.61 0 001.279.333 10.925 10.925 0 004.678-.195c.482-.128.92-.285 1.306-.456a6.867 6.867 0 001.009-.547c.288-.19.529-.384.75-.6.381-.403.699-.866.941-1.375a5.457 5.457 0 00.426-3.365 5.413 5.413 0 00-1.907-3.176 5.16 5.16 0 00-.633-.439z"/></g></svg>